{"title":"SexVideoCasting.Adriana.Brill.Hard.Casting.XXX.1080p.MP4.mp4","uid":10614797,"size":1363026745,"categoryP":"porn","categoryS":"movies","magnet":"?xt=urn:btih:b80d17c9fff37a035e2860a7422f73abebaaeb82&amp;dn=SexVideoCasting.Adriana.Brill.Hard.Casting.XXX.1080p.MP4.mp4&amp;tr=udp%3A%2F%2Ftracker.openbittorrent.com%3A80&amp;tr=udp%3A%2F%2Fopen.demonii.com%3A1337&amp;tr=udp%3A%2F%2Ftracker.coppersurfer.tk%3A6969&amp;tr=udp%3A%2F%2Fexodus.desync.com%3A6969","seeders":0,"leechers":1,"uploader":"XXXmegathor","files":1,"time":1406090941,"description":"SexVideoCasting.Adriana.Brill.Hard.Casting.XXX.1080p.MP4\n\nSCREENIES &lt;a href=&quot;\nhttp://xxxtrapics.com/image/M5&quot; rel=&quot;nofollow&quot; target=&quot;_NEW&quot;&gt;\nhttp://xxxtrapics.com/image/M5&lt;/a&gt;\n\n\n\nDuration : 22mn 9s\nBit rate mode : Variable\nBit rate : 8 005 Kbps\nMaximum bit rate : 8 000 Kbps\nWidth : 1 920 pixels\nHeight : 1 080 pixels\nDisplay aspect ratio : 16:9\nFrame rate mode : Constant\nFrame rate : 29.970 fps\nStandard : NTSC\nColor space : YUV\nChroma subsampling : 4:2:0\nBit depth : 8 bits\nScan type : Progressive\nBits/(Pixel*Frame) : 0.129\nStream size : 1.24 GiB (98%)\nLanguage : English\nEncoded date : UTC 2014-07-14 21:18:57\nTagged date : UTC 2014-07-14 21:18:57\nColor primaries : BT.709-5, BT.1361, IEC 61966-2-4, SMPTE RP177\nTransfer characteristics : BT.709-5, BT.1361\nMatrix coefficients : BT.709-5, BT.1361, IEC 61966-2-4 709, SMPTE RP177\n\nAudio\nID : 2\nFormat : AAC\nFormat/Info : Advanced Audio Codec\nFormat profile : LC\nCodec ID : 40\nDuration : 22mn 9s\nBit rate mode : Constant\nBit rate : 192 Kbps\nChannel(s) : 2 channels\nChannel positions : Front: L R\nSampling rate : 48.0 KHz\nCompression mode : Lossy\nStream size : 30.0 MiB (2%)\nLanguage : English\nEncoded date : UTC 2014-07-14 21:18:57\nTagged date : UTC 2014-07-14 21:18:57\n\n","torrent":{"xt":"urn:btih:b80d17c9fff37a035e2860a7422f73abebaaeb82","amp;dn":"SexVideoCasting.Adriana.Brill.Hard.Casting.XXX.1080p.MP4.mp4","amp;tr":["udp%3A%2F%2Ftracker.openbittorrent.com%3A80","udp%3A%2F%2Fopen.demonii.com%3A1337","udp%3A%2F%2Ftracker.coppersurfer.tk%3A6969","udp%3A%2F%2Fexodus.desync.com%3A6969"],"infoHash":"b80d17c9fff37a035e2860a7422f73abebaaeb82","infoHashBuffer":{"type":"Buffer","data":[184,13,23,201,255,243,122,3,94,40,96,167,66,47,115,171,235,170,235,130]},"announce":[],"urlList":[]}}